<?xml version="1.0" standalone="no"?>
   <!DOCTYPE svg PUBLIC "-//W3C//DTD SVG 1.1//EN" 
   "http://www.w3.org/Graphics/SVG/1.1/DTD/svg11.dtd"><svg id="svg" version="1.1" width="1845" height="2112" xmlns="http://www.w3.org/2000/svg"><path d="M1324.114 178.467 C 1294.717 181.541,1283.189 184.234,1264.099 192.488 C 1199.991 220.204,1156.818 268.696,1149.389 321.330 C 1147.900 331.873,1147.724 345.900,1148.996 352.500 L 1151.310 364.500 1151.655 352.380 C 1152.093 336.990,1159.545 308.038,1167.066 292.500 C 1177.394 271.167,1202.012 248.692,1230.342 234.733 C 1258.831 220.696,1260.002 220.341,1259.995 225.750 C 1259.992 227.813,1253.911 233.340,1246.482 238.034 C 1219.500 255.080,1185.851 302.266,1188.788 318.937 C 1189.906 325.285,1190.017 325.303,1192.176 319.500 C 1209.189 273.749,1241.964 242.162,1287.790 227.351 C 1306.364 221.348,1308.484 221.198,1312.865 225.579 C 1318.117 230.831,1319.637 229.704,1272.000 255.875 C 1252.972 266.329,1225.041 291.928,1218.344 305.053 C 1212.414 316.673,1214.775 316.211,1223.604 304.023 C 1244.013 275.849,1274.909 257.492,1321.500 245.857 C 1351.853 238.277,1397.925 236.879,1423.500 242.762 C 1498.433 259.998,1558.084 311.042,1585.729 381.584 C 1598.021 412.949,1594.191 454.975,1576.486 483.022 C 1568.555 495.585,1545.944 516.000,1539.960 516.000 C 1537.782 516.000,1536.000 517.350,1536.000 519.000 C 1536.000 523.248,1537.433 522.895,1553.734 514.635 C 1573.493 504.622,1586.383 490.992,1596.462 469.454 C 1607.423 446.031,1610.659 427.884,1607.726 406.278 C 1605.069 386.693,1605.854 384.000,1614.221 384.000 C 1623.395 384.000,1631.976 400.953,1631.989 419.102 C 1632.033 480.767,1592.220 536.121,1537.590 550.351 C 1520.016 554.928,1493.595 556.595,1490.332 553.332 C 1489.415 552.415,1490.133 546.880,1491.928 541.032 C 1495.310 530.011,1503.052 525.000,1516.695 525.000 C 1520.713 525.000,1524.000 523.559,1524.000 521.798 C 1524.000 519.949,1521.436 519.410,1517.933 520.521 C 1507.654 523.784,1494.000 519.275,1494.000 512.618 C 1494.000 509.371,1490.679 503.636,1486.621 499.875 L 1479.242 493.036 1494.356 478.268 C 1512.800 460.247,1518.000 450.852,1518.000 435.554 C 1518.000 421.233,1509.360 409.215,1497.135 406.530 C 1491.285 405.245,1488.879 403.201,1489.945 400.423 C 1490.826 398.126,1489.935 391.362,1487.964 385.392 C 1482.189 367.892,1460.771 358.095,1445.803 366.106 C 1440.801 368.783,1440.000 368.198,1440.000 361.872 C 1440.000 357.360,1436.445 351.542,1430.770 346.767 C 1418.822 336.713,1412.802 336.705,1422.227 346.755 C 1437.145 362.663,1427.807 403.037,1399.258 446.058 C 1382.867 470.759,1368.614 479.040,1356.107 471.130 C 1351.418 468.164,1350.153 444.251,1353.799 427.500 C 1355.581 419.315,1355.275 419.511,1350.419 429.667 C 1338.737 454.101,1327.656 458.965,1317.181 444.254 C 1302.555 423.713,1312.534 363.816,1335.415 334.808 C 1340.754 328.039,1342.256 324.995,1338.751 328.043 C 1332.533 333.453,1332.213 333.432,1325.499 327.177 C 1301.255 304.590,1272.033 332.362,1268.008 381.816 C 1263.252 440.263,1306.886 495.310,1370.989 511.733 C 1399.078 518.929,1437.187 516.641,1457.612 506.533 L 1473.091 498.872 1471.242 514.186 C 1468.769 534.680,1462.383 540.016,1440.418 539.946 C 1377.431 539.746,1299.075 512.061,1256.498 474.965 C 1236.446 457.494,1228.222 453.000,1216.305 453.000 C 1210.265 453.000,1209.000 454.488,1209.000 461.595 C 1209.000 470.872,1215.106 480.270,1234.118 500.250 C 1250.317 517.275,1253.916 516.458,1240.444 498.815 C 1226.627 480.719,1231.977 478.490,1250.454 494.644 C 1258.179 501.398,1271.090 511.328,1279.145 516.712 C 1289.001 523.300,1292.189 526.817,1288.895 527.470 C 1286.203 528.003,1284.000 530.138,1284.000 532.213 C 1284.000 536.148,1289.807 539.666,1308.769 547.220 C 1321.236 552.187,1327.165 562.814,1324.157 574.800 C 1322.301 582.193,1320.655 582.369,1305.750 576.767 C 1303.688 575.992,1302.000 576.583,1302.000 578.081 C 1302.000 579.579,1308.413 583.990,1316.250 587.884 C 1328.050 593.746,1329.468 595.267,1324.500 596.731 C 1321.200 597.704,1314.656 601.104,1309.957 604.287 C 1300.809 610.484,1288.709 611.529,1272.284 607.543 C 1265.469 605.889,1262.701 606.089,1263.971 608.144 C 1265.018 609.839,1269.616 611.991,1274.188 612.926 C 1278.759 613.862,1284.986 616.471,1288.024 618.724 C 1292.872 622.319,1293.134 624.271,1290.160 634.660 C 1288.227 641.413,1282.959 649.493,1277.899 653.467 C 1269.137 660.348,1268.819 660.373,1252.191 655.539 C 1242.931 652.847,1234.632 651.368,1233.748 652.252 C 1232.864 653.136,1234.022 654.437,1236.321 655.144 C 1269.728 665.418,1295.768 676.094,1317.532 688.441 C 1354.340 709.320,1445.746 772.443,1473.646 796.250 C 1521.549 837.125,1502.462 809.271,1439.897 747.000 C 1411.359 718.595,1395.101 705.152,1372.870 691.575 C 1356.728 681.717,1342.866 672.592,1342.066 671.298 C 1338.286 665.181,1344.711 657.000,1353.296 657.000 C 1364.018 657.000,1367.218 650.680,1360.994 641.795 C 1358.496 638.229,1356.913 633.779,1357.476 631.906 C 1358.038 630.033,1359.312 624.788,1360.307 620.250 C 1361.554 614.557,1364.000 612.000,1368.197 612.000 C 1371.684 612.000,1376.299 608.481,1379.013 603.750 L 1383.748 595.500 1433.624 595.334 C 1477.793 595.188,1486.843 594.264,1512.716 587.266 C 1582.796 568.309,1627.649 528.005,1645.214 468.205 C 1652.390 443.773,1651.632 395.924,1643.658 370.066 C 1617.528 285.326,1541.990 215.940,1445.468 188.017 C 1421.817 181.175,1408.239 178.888,1372.500 175.724 C 1365.900 175.140,1344.126 176.375,1324.114 178.467 M1362.306 327.905 C 1372.270 334.655,1372.500 335.285,1372.500 355.818 L 1372.500 376.825 1380.332 364.467 C 1384.640 357.670,1392.065 349.071,1396.832 345.358 C 1405.472 338.628,1405.476 338.610,1398.000 339.917 C 1393.875 340.638,1388.304 342.158,1385.620 343.293 C 1382.022 344.816,1380.221 343.290,1378.763 337.481 C 1377.459 332.285,1373.282 328.141,1366.490 325.302 C 1351.836 319.180,1350.579 319.961,1362.306 327.905 M1322.888 329.306 L 1329.441 334.612 1321.754 348.056 C 1311.041 366.794,1304.840 386.683,1302.499 409.814 L 1300.500 429.570 1292.672 423.399 C 1266.707 402.931,1279.806 324.000,1309.168 324.000 C 1313.110 324.000,1319.284 326.388,1322.888 329.306 M1202.115 348.688 C 1198.797 372.425,1207.730 408.000,1217.007 408.000 C 1222.092 408.000,1222.022 406.678,1216.359 395.727 C 1213.806 390.791,1210.003 374.995,1207.908 360.626 C 1204.104 334.543,1204.094 334.523,1202.115 348.688 M1182.469 349.186 C 1179.203 361.015,1181.771 375.424,1187.484 377.328 C 1190.193 378.231,1190.781 373.727,1189.754 359.957 C 1188.079 337.495,1186.388 334.995,1182.469 349.186 M1389.000 358.500 C 1389.000 360.975,1390.350 363.000,1392.000 363.000 C 1393.650 363.000,1395.000 360.975,1395.000 358.500 C 1395.000 356.025,1393.650 354.000,1392.000 354.000 C 1390.350 354.000,1389.000 356.025,1389.000 358.500 M1353.000 364.133 C 1353.000 366.406,1355.009 369.933,1357.465 371.971 C 1361.073 374.965,1362.274 374.775,1363.730 370.982 C 1364.721 368.400,1364.657 364.873,1363.589 363.144 C 1360.761 358.568,1353.000 359.293,1353.000 364.133 M1152.874 392.438 C 1154.797 408.671,1175.227 453.243,1181.739 455.413 C 1184.273 456.258,1181.601 448.998,1175.098 437.370 C 1169.113 426.668,1163.408 411.970,1162.420 404.706 C 1159.425 382.707,1158.034 378.000,1154.525 378.000 C 1152.273 378.000,1151.728 382.762,1152.874 392.438 M1362.485 393.334 C 1356.482 409.365,1355.372 414.742,1358.460 412.834 C 1362.361 410.423,1369.191 390.191,1366.883 387.883 C 1365.940 386.940,1363.960 389.393,1362.485 393.334 M1242.598 407.959 C 1226.537 411.763,1227.608 414.264,1244.904 413.351 C 1254.462 412.846,1261.516 410.975,1262.255 408.750 C 1263.634 404.596,1257.791 404.361,1242.598 407.959 M1401.750 410.194 C 1394.336 415.178,1392.668 423.000,1399.018 423.000 C 1402.549 423.000,1411.614 408.488,1409.362 406.440 C 1408.888 406.009,1405.463 407.698,1401.750 410.194 M1318.915 415.500 C 1317.863 418.241,1318.910 420.000,1321.594 420.000 C 1324.017 420.000,1326.000 417.975,1326.000 415.500 C 1326.000 413.025,1324.794 411.000,1323.321 411.000 C 1321.847 411.000,1319.865 413.025,1318.915 415.500 M1620.095 429.373 C 1620.043 438.653,1617.920 452.153,1615.377 459.373 C 1611.315 470.909,1611.302 471.954,1615.268 468.000 C 1617.750 465.525,1621.685 454.413,1624.012 443.306 C 1627.558 426.386,1627.591 422.252,1624.217 417.806 C 1620.695 413.164,1620.179 414.611,1620.095 429.373 M1197.106 428.803 C 1192.973 436.525,1193.179 438.000,1198.394 438.000 C 1202.234 438.000,1209.000 429.513,1209.000 424.697 C 1209.000 420.456,1199.890 423.601,1197.106 428.803 M1389.000 441.064 C 1389.000 442.750,1385.625 445.666,1381.500 447.546 C 1377.375 449.425,1374.000 453.417,1374.000 456.417 C 1374.000 461.079,1375.041 461.397,1381.169 458.605 C 1390.172 454.503,1398.847 438.000,1392.000 438.000 C 1390.350 438.000,1389.000 439.379,1389.000 441.064 M728.997 455.640 C 714.231 463.706,709.881 469.404,698.954 495.000 C 687.044 522.900,671.714 556.293,597.728 715.500 C 565.524 784.800,526.021 869.850,509.945 904.500 C 493.869 939.150,468.951 992.475,454.571 1023.000 C 395.422 1148.561,326.409 1302.409,328.359 1304.359 C 329.068 1305.068,331.615 1301.115,334.018 1295.574 C 343.566 1273.559,425.700 1104.273,470.631 1014.000 C 501.891 951.196,544.230 873.912,552.807 864.000 C 557.804 858.225,568.670 846.091,576.952 837.036 C 586.150 826.979,596.970 810.050,604.752 793.536 C 614.221 773.443,622.943 760.656,638.718 743.740 C 650.393 731.222,667.111 710.972,675.869 698.740 C 687.910 681.925,693.749 676.271,699.809 675.559 C 706.128 674.817,708.449 672.354,710.780 663.911 C 712.406 658.021,717.252 648.130,721.549 641.929 C 725.846 635.729,733.239 620.263,737.978 607.560 C 746.409 584.958,758.290 564.061,762.731 564.020 C 767.707 563.975,783.000 538.579,783.000 530.361 C 783.000 523.021,781.920 521.773,776.250 522.561 C 770.267 523.393,769.568 522.307,770.099 513.000 C 770.887 499.186,773.210 480.725,775.593 469.329 C 778.071 457.479,772.978 453.223,754.068 451.347 C 743.307 450.280,736.755 451.401,728.997 455.640 M654.000 475.386 C 637.242 484.207,592.265 524.614,563.711 556.500 C 477.141 653.170,374.305 808.135,306.153 944.617 C 296.573 963.803,287.803 982.538,286.665 986.250 C 281.706 1002.426,289.512 989.666,313.278 942.750 C 354.849 860.686,407.648 777.292,474.251 688.500 C 525.893 619.652,585.000 550.356,585.000 558.658 C 585.000 560.936,583.816 564.083,582.368 565.650 C 579.401 568.862,566.162 603.442,549.116 652.500 C 542.810 670.650,533.454 695.214,528.325 707.086 C 523.196 718.958,519.000 730.471,519.000 732.670 C 519.000 734.870,514.118 746.756,508.151 759.085 C 502.184 771.413,492.187 795.675,485.935 813.000 C 459.010 887.618,445.749 917.699,408.565 988.500 C 369.773 1062.364,362.799 1077.821,365.958 1082.932 C 372.397 1093.350,384.874 1075.068,399.905 1033.189 C 412.594 997.838,420.462 980.636,471.119 877.500 C 518.414 781.210,572.069 671.090,586.696 640.297 C 590.668 631.936,598.604 619.786,604.331 613.297 C 614.744 601.501,614.744 601.500,612.249 610.500 C 607.723 626.827,590.477 669.980,575.376 702.770 C 567.201 720.518,561.039 736.616,561.681 738.542 C 563.908 745.224,575.364 724.352,585.032 696.000 C 590.376 680.325,598.460 660.750,602.995 652.500 C 607.531 644.250,619.361 619.950,629.286 598.500 C 692.312 462.277,690.310 467.893,675.750 468.140 C 671.213 468.217,661.425 471.477,654.000 475.386 M755.400 471.600 C 759.683 475.883,760.232 496.884,756.128 499.421 C 754.548 500.397,750.985 496.765,748.209 491.348 C 745.434 485.932,741.804 480.624,740.144 479.553 C 735.527 476.574,740.100 468.000,746.306 468.000 C 749.328 468.000,753.420 469.620,755.400 471.600 M1195.830 489.638 C 1201.328 500.270,1215.713 515.183,1235.250 530.505 C 1252.683 544.177,1251.341 539.420,1233.151 523.066 C 1224.984 515.724,1213.394 503.030,1207.396 494.858 C 1195.100 478.108,1188.274 475.027,1195.830 489.638 M798.595 501.783 C 796.802 503.943,792.403 516.463,788.818 529.605 C 785.233 542.747,774.185 571.725,764.266 594.000 C 754.346 616.275,740.515 648.000,733.529 664.500 C 708.656 723.244,672.145 803.228,648.253 851.311 C 634.914 878.157,624.000 900.774,624.000 901.572 C 624.000 902.370,596.953 960.588,563.895 1030.947 C 530.837 1101.305,504.320 1160.362,504.966 1162.185 C 505.613 1164.008,508.432 1160.100,511.230 1153.500 C 524.068 1123.219,571.709 1023.786,605.377 957.000 C 625.757 916.575,653.221 860.092,666.408 831.482 C 679.595 802.872,694.425 772.899,699.362 764.875 C 704.299 756.850,717.511 730.309,728.721 705.893 C 752.476 654.152,770.480 618.000,772.494 618.000 C 773.274 618.000,771.076 625.088,767.610 633.750 C 764.143 642.413,759.262 655.575,756.763 663.000 C 754.263 670.425,743.756 696.075,733.414 720.000 C 723.072 743.925,706.899 782.400,697.475 805.500 C 688.050 828.600,672.435 866.400,662.774 889.500 C 653.114 912.600,639.231 947.050,631.925 966.056 C 624.618 985.061,606.181 1029.611,590.954 1065.056 C 562.844 1130.488,552.242 1154.610,498.672 1275.000 C 482.153 1312.125,461.619 1359.375,453.040 1380.000 C 444.462 1400.625,434.075 1424.250,429.957 1432.500 C 418.709 1455.038,364.590 1583.188,358.611 1601.444 C 355.739 1610.214,354.291 1618.291,355.393 1619.393 C 357.516 1621.516,390.307 1588.524,408.214 1566.249 L 418.866 1552.998 427.286 1576.749 C 444.047 1624.029,474.365 1674.238,512.711 1718.220 C 588.477 1805.122,715.301 1879.457,844.070 1912.436 C 954.382 1940.689,1057.559 1942.107,1163.895 1916.831 C 1219.011 1903.731,1251.725 1892.083,1298.123 1869.041 C 1392.087 1822.376,1476.779 1751.498,1540.304 1666.361 C 1550.096 1653.237,1561.673 1637.775,1566.032 1632.000 C 1575.105 1619.979,1591.073 1592.538,1613.814 1549.885 C 1629.340 1520.764,1651.180 1464.180,1648.088 1461.088 C 1645.034 1458.034,1638.576 1470.506,1629.045 1497.863 C 1617.737 1530.321,1589.867 1586.162,1568.507 1619.158 C 1549.629 1648.321,1465.661 1732.385,1414.409 1773.433 C 1366.813 1811.554,1315.637 1841.984,1278.492 1854.253 C 1262.546 1859.520,1239.537 1867.749,1227.360 1872.539 C 1211.855 1878.638,1197.919 1881.695,1180.860 1882.739 L 1156.500 1884.231 1185.000 1873.719 C 1345.360 1814.574,1489.576 1686.256,1571.823 1529.536 C 1616.990 1443.470,1632.332 1381.446,1638.414 1260.316 C 1640.922 1210.369,1640.916 1186.894,1638.390 1168.816 C 1636.521 1155.442,1634.995 1133.700,1634.999 1120.500 L 1635.005 1096.500 1643.774 1115.037 C 1664.376 1158.586,1673.030 1220.364,1672.066 1317.000 C 1671.664 1357.233,1668.646 1379.566,1657.469 1425.000 L 1655.624 1432.500 1660.201 1425.000 C 1666.834 1414.132,1679.229 1375.398,1682.762 1354.500 C 1696.184 1275.104,1691.055 1179.757,1668.964 1098.000 C 1650.902 1031.155,1620.113 960.220,1591.016 918.415 C 1569.354 887.292,1533.156 843.000,1529.383 843.000 C 1527.455 843.000,1529.316 846.713,1533.518 851.250 C 1537.721 855.788,1546.840 867.999,1553.784 878.386 C 1564.856 894.950,1567.143 901.406,1572.379 930.886 C 1575.663 949.374,1581.054 978.399,1584.359 995.388 C 1589.456 1021.584,1589.837 1028.651,1586.868 1041.918 C 1583.956 1054.929,1584.256 1062.098,1588.648 1084.530 C 1594.145 1112.609,1597.716 1213.773,1594.048 1237.500 L 1592.192 1249.500 1588.481 1236.000 C 1583.023 1216.146,1575.236 1184.672,1573.509 1175.481 C 1572.680 1171.071,1568.456 1163.248,1564.122 1158.097 C 1558.654 1151.600,1554.074 1139.562,1549.164 1118.785 C 1541.954 1088.277,1535.191 1072.684,1511.112 1031.057 C 1503.147 1017.286,1495.415 998.719,1492.372 986.057 C 1482.389 944.503,1466.584 892.950,1458.075 874.184 C 1453.242 863.527,1444.700 851.041,1438.539 845.632 C 1432.518 840.345,1423.754 828.478,1419.064 819.260 C 1411.719 804.826,1387.855 780.000,1381.325 780.000 C 1380.207 780.000,1367.231 774.569,1352.489 767.931 C 1317.119 752.005,1302.574 747.096,1290.593 747.044 C 1284.826 747.018,1266.020 739.994,1245.593 730.237 C 1203.540 710.149,1159.711 695.091,1125.000 688.805 C 1084.334 681.440,1005.176 676.811,991.193 680.980 C 981.190 683.963,977.537 683.623,965.918 678.626 C 950.846 672.145,951.447 672.011,912.000 690.655 C 902.925 694.944,891.229 699.333,886.010 700.408 C 864.032 704.934,874.203 680.269,903.290 658.500 C 909.904 653.550,919.673 645.909,924.997 641.519 C 945.065 624.977,1007.385 616.538,1052.045 624.315 C 1074.327 628.195,1086.848 626.117,1085.433 618.774 C 1084.083 611.761,1064.843 608.164,1039.500 610.184 C 993.678 613.838,931.766 624.138,900.955 633.234 C 864.503 643.996,814.621 664.930,802.258 674.655 C 797.762 678.191,793.494 680.494,792.772 679.772 C 792.051 679.051,793.626 663.696,796.272 645.650 C 804.481 589.678,808.642 504.642,803.428 499.428 C 802.563 498.563,800.388 499.623,798.595 501.783 M741.997 525.631 C 748.049 532.578,753.000 539.362,753.000 540.705 C 753.000 542.049,749.734 544.390,745.742 545.908 C 741.750 547.426,737.363 550.570,735.992 552.896 C 733.131 557.750,720.163 565.163,718.114 563.114 C 717.360 562.360,719.101 556.797,721.984 550.752 C 726.000 542.331,726.528 537.860,724.243 531.631 C 720.643 521.816,722.050 513.000,727.217 513.000 C 729.295 513.000,735.946 518.684,741.997 525.631 M1252.197 544.762 C 1249.125 552.114,1248.657 556.677,1250.719 559.161 C 1254.147 563.292,1283.499 571.501,1285.978 569.022 C 1289.590 565.410,1283.344 561.583,1270.753 559.695 L 1257.433 557.697 1261.716 547.445 C 1267.066 534.640,1267.049 534.000,1261.347 534.000 C 1258.788 534.000,1254.670 538.843,1252.197 544.762 M1241.122 577.500 C 1236.514 583.275,1230.059 588.000,1226.778 588.000 C 1218.878 588.000,1216.268 595.658,1221.095 604.677 C 1224.111 610.313,1224.206 613.661,1221.519 619.559 C 1216.436 630.715,1210.474 631.628,1189.933 624.396 C 1170.299 617.483,1113.000 611.873,1113.000 616.863 C 1113.000 618.386,1122.052 621.349,1133.115 623.447 C 1144.178 625.546,1159.361 629.975,1166.855 633.290 C 1184.494 641.093,1203.376 643.615,1211.519 639.257 C 1219.203 635.145,1225.463 623.563,1228.212 608.374 C 1229.550 600.981,1233.108 595.195,1238.817 591.130 C 1246.685 585.528,1256.495 567.000,1251.594 567.000 C 1250.442 567.000,1245.730 571.725,1241.122 577.500 M956.216 641.973 C 941.535 653.521,948.538 662.683,964.202 652.420 C 968.566 649.560,980.010 647.508,994.667 646.957 C 1009.644 646.394,1018.579 644.763,1019.349 642.453 C 1020.204 639.888,1015.440 638.877,1003.028 638.990 C 993.388 639.078,980.760 638.331,974.966 637.330 C 966.856 635.929,962.540 636.998,956.216 641.973 M927.600 654.600 C 920.706 661.494,923.467 666.019,933.750 664.677 C 939.113 663.977,943.838 663.314,944.250 663.202 C 945.204 662.945,933.310 651.000,932.100 651.000 C 931.605 651.000,929.580 652.620,927.600 654.600 M1209.000 680.313 C 1209.000 685.857,1259.674 726.000,1266.673 726.000 C 1268.518 726.000,1272.496 728.234,1275.514 730.965 C 1281.718 736.579,1282.394 733.852,1277.936 721.198 C 1275.060 713.036,1257.961 699.000,1250.893 699.000 C 1245.728 699.000,1228.940 689.698,1223.133 683.619 C 1217.767 678.001,1209.000 675.950,1209.000 680.313 M1156.500 743.942 C 1311.137 773.581,1450.769 903.607,1502.887 1066.500 C 1521.892 1125.897,1532.246 1199.017,1529.059 1251.324 C 1522.779 1354.411,1475.993 1475.725,1407.258 1567.149 C 1349.171 1644.411,1272.363 1709.135,1194.429 1746.493 C 1131.604 1776.609,1093.029 1787.777,1024.604 1795.661 C 946.894 1804.613,880.029 1798.380,810.000 1775.654 C 783.367 1767.011,715.993 1731.935,687.723 1711.994 C 657.621 1690.761,607.482 1640.791,586.921 1611.532 C 546.650 1554.223,507.060 1446.920,507.031 1395.000 C 507.019 1373.245,507.706 1371.344,550.368 1275.000 C 564.616 1242.825,583.852 1199.226,593.114 1178.112 C 602.511 1156.695,611.402 1140.300,613.228 1141.027 C 615.028 1141.743,639.788 1151.487,668.250 1162.681 C 716.259 1181.563,720.019 1183.593,720.258 1190.767 C 720.459 1196.806,722.433 1194.393,729.268 1179.750 C 734.082 1169.438,738.520 1161.000,739.132 1161.000 C 741.824 1161.000,768.117 1176.761,769.701 1179.325 C 770.668 1180.889,769.128 1191.243,766.279 1202.334 C 759.619 1228.266,759.604 1280.715,766.248 1309.500 C 773.371 1340.357,781.677 1359.508,804.551 1397.810 C 824.499 1431.213,825.891 1436.787,814.324 1436.954 C 812.576 1436.979,803.300 1441.725,793.710 1447.500 C 784.120 1453.275,775.923 1458.000,775.495 1458.000 C 775.068 1458.000,768.368 1448.621,760.607 1437.159 C 752.847 1425.696,744.500 1414.660,742.060 1412.635 C 738.304 1409.517,737.878 1410.068,739.288 1416.226 C 740.655 1422.198,738.674 1425.180,728.227 1432.885 C 721.227 1438.047,695.000 1457.885,669.945 1476.970 C 643.373 1497.210,623.855 1510.176,623.106 1508.085 C 622.399 1506.113,620.726 1505.523,619.386 1506.774 C 615.616 1510.296,648.516 1556.416,669.125 1576.500 C 686.719 1593.645,687.514 1594.073,685.873 1585.500 C 684.355 1577.568,686.457 1574.008,703.592 1555.500 L 723.035 1534.500 720.767 1548.000 C 710.320 1610.205,733.362 1669.227,782.477 1706.070 C 802.854 1721.355,824.920 1730.132,853.750 1734.420 C 896.827 1740.827,948.767 1723.101,980.581 1691.136 C 996.788 1674.853,1013.965 1651.092,1013.987 1644.927 C 1013.994 1642.962,1015.498 1640.429,1017.328 1639.297 C 1019.647 1637.864,1020.144 1640.767,1018.969 1648.870 C 1018.041 1655.267,1016.418 1673.663,1015.361 1689.750 C 1013.670 1715.503,1012.777 1719.000,1007.897 1719.000 C 1004.848 1719.000,1001.520 1720.350,1000.500 1722.000 C 999.351 1723.859,1004.822 1725.000,1014.883 1725.000 C 1039.072 1725.000,1068.000 1721.500,1068.000 1718.573 C 1068.000 1717.158,1065.300 1716.000,1062.000 1716.000 C 1058.700 1716.000,1056.000 1715.663,1056.000 1715.250 C 1055.999 1711.677,1040.623 1598.573,1039.278 1592.250 C 1038.313 1587.713,1035.804 1584.000,1033.702 1584.000 C 1031.118 1584.000,1029.269 1576.769,1027.993 1561.671 C 1026.955 1549.390,1023.569 1532.667,1020.470 1524.510 L 1014.834 1509.678 1040.905 1506.335 C 1130.810 1494.805,1204.628 1439.940,1242.856 1356.235 C 1275.971 1283.727,1271.695 1203.711,1230.822 1131.033 C 1213.261 1099.807,1174.196 1059.431,1146.616 1044.000 C 1116.144 1026.952,1117.727 1028.874,1123.755 1016.232 C 1127.151 1009.110,1132.186 1004.128,1138.054 1002.082 C 1143.035 1000.346,1149.506 996.757,1152.434 994.108 C 1157.361 989.648,1159.015 990.000,1174.682 998.842 C 1191.104 1008.110,1198.161 1009.139,1191.691 1001.322 C 1189.367 998.515,1195.634 981.162,1215.279 936.000 C 1229.993 902.175,1243.369 871.412,1245.003 867.637 C 1247.535 861.789,1248.900 861.271,1254.244 864.131 C 1263.567 869.120,1265.543 864.476,1256.955 857.759 C 1246.427 849.524,1198.690 826.862,1171.651 817.263 C 1149.248 809.310,1139.660 809.202,1150.357 817.024 C 1155.582 820.845,1155.582 822.506,1150.361 863.430 L 1144.946 905.874 1124.578 931.183 C 1108.351 951.347,1102.968 956.168,1098.105 954.897 C 1086.993 951.991,1091.776 959.002,1104.248 963.901 C 1114.465 967.914,1116.170 969.739,1114.531 974.903 C 1113.450 978.308,1114.111 985.777,1116.000 991.500 C 1119.588 1002.372,1118.548 1008.947,1111.849 1017.736 C 1108.061 1022.707,1107.016 1022.682,1091.238 1017.254 C 1049.538 1002.907,988.756 1001.550,945.116 1013.991 C 916.550 1022.135,876.260 1042.926,853.479 1061.278 C 829.920 1080.258,804.248 1111.234,790.683 1137.048 C 784.505 1148.804,777.694 1158.000,775.165 1158.000 C 763.992 1158.000,744.000 1150.972,744.000 1147.044 C 744.000 1144.710,747.398 1136.095,751.551 1127.900 C 759.533 1112.148,759.374 1110.842,750.180 1116.584 C 745.683 1119.392,736.640 1119.162,708.408 1115.520 C 669.818 1110.543,672.934 1111.991,638.007 1082.798 C 636.636 1081.652,638.540 1074.816,642.238 1067.607 C 645.936 1060.398,656.707 1036.275,666.173 1014.000 C 675.640 991.725,696.011 945.256,711.443 910.735 C 744.551 836.673,740.466 840.901,814.500 804.040 C 882.239 770.314,953.169 748.294,1017.929 740.888 C 1046.308 737.642,1133.678 739.568,1156.500 743.942 M597.022 796.890 C 587.427 814.848,571.690 833.690,568.746 830.746 C 568.021 830.021,571.382 820.926,576.214 810.534 C 581.046 800.142,585.000 790.323,585.000 788.714 C 585.000 785.064,594.302 770.250,598.431 767.326 C 600.119 766.130,602.794 767.986,604.375 771.449 C 606.630 776.388,605.043 781.877,597.022 796.890 M978.000 808.684 C 939.065 816.833,926.691 820.073,925.183 822.513 C 924.338 823.881,926.919 825.000,930.920 825.000 C 937.523 825.000,939.371 828.377,950.975 861.632 C 963.119 896.434,963.660 899.429,961.812 921.591 C 958.858 957.010,957.441 961.642,948.471 965.200 L 940.500 968.362 948.000 968.637 C 952.125 968.788,963.600 967.041,973.500 964.754 C 983.400 962.468,998.925 959.637,1008.000 958.464 C 1025.711 956.174,1038.620 951.259,1027.364 951.091 C 1021.534 951.005,1020.937 947.535,1015.350 881.250 L 1009.472 811.500 1016.986 807.994 C 1023.982 804.729,1023.569 804.491,1011.000 804.545 C 1003.575 804.577,988.725 806.439,978.000 808.684 M991.303 822.750 C 992.169 828.113,995.004 854.100,997.603 880.500 C 1000.201 906.900,1003.112 934.238,1004.072 941.250 C 1007.260 964.560,1000.383 954.514,987.350 916.825 L 974.495 879.650 978.059 850.075 C 980.019 833.809,982.115 818.813,982.717 816.750 C 984.804 809.601,989.736 813.047,991.303 822.750 M973.795 837.000 C 972.198 848.550,970.108 858.000,969.150 858.000 C 968.192 858.000,964.893 850.913,961.818 842.250 C 958.744 833.588,955.624 824.920,954.885 822.989 C 953.667 819.806,959.666 817.513,972.099 816.409 C 976.081 816.055,976.308 818.814,973.795 837.000 M1189.838 832.448 L 1200.483 836.896 1194.461 845.198 C 1191.148 849.764,1184.202 858.225,1179.025 864.000 L 1169.612 874.500 1171.280 858.000 C 1172.197 848.925,1172.960 838.463,1172.974 834.750 C 1173.005 826.815,1175.531 826.470,1189.838 832.448 M1212.031 842.250 C 1212.094 846.857,1183.653 909.460,1182.741 906.722 C 1181.867 904.100,1200.644 849.240,1204.615 842.814 C 1206.689 839.458,1211.987 839.054,1212.031 842.250 M1214.001 899.024 C 1203.141 923.486,1190.259 952.950,1185.375 964.500 C 1180.303 976.492,1174.396 985.928,1171.603 986.498 C 1165.848 987.672,1163.839 992.986,1199.202 913.500 C 1212.416 883.800,1224.120 856.912,1225.212 853.748 C 1226.646 849.591,1228.105 848.905,1230.472 851.272 C 1232.840 853.640,1228.273 866.879,1214.001 899.024 M442.199 868.973 C 435.922 877.999,433.354 884.728,434.299 889.673 C 436.437 900.858,439.669 898.562,446.913 880.715 C 456.063 858.171,453.738 852.381,442.199 868.973 M1179.325 875.250 C 1174.663 883.732,1167.199 892.712,1167.095 889.963 C 1166.986 887.050,1178.699 870.000,1180.810 870.000 C 1181.581 870.000,1180.913 872.363,1179.325 875.250 M405.297 894.555 L 389.340 909.855 391.366 925.123 C 392.480 933.521,393.946 940.946,394.623 941.623 C 397.435 944.435,404.754 934.915,406.602 926.043 C 407.695 920.794,410.277 913.800,412.340 910.500 C 416.956 903.115,424.028 882.028,422.426 880.426 C 421.781 879.781,414.073 886.139,405.297 894.555 M761.580 904.873 C 739.110 921.210,726.000 933.022,726.000 936.929 C 726.000 938.472,728.013 938.064,730.474 936.021 C 734.193 932.935,740.347 936.294,766.908 955.904 L 798.867 979.500 808.446 1007.227 C 817.717 1034.063,817.847 1035.114,812.494 1039.958 C 809.452 1042.711,807.533 1045.533,808.230 1046.230 C 808.927 1046.927,818.047 1040.824,828.498 1032.669 C 838.949 1024.513,853.238 1014.260,860.250 1009.883 C 873.172 1001.817,878.756 992.708,866.883 999.062 C 861.600 1001.890,856.438 999.147,828.974 978.918 L 797.181 955.500 787.584 927.789 L 777.986 900.077 784.243 895.696 C 789.324 892.138,789.575 891.285,785.580 891.157 C 782.874 891.071,772.074 897.243,761.580 904.873 M787.379 947.444 C 786.299 948.773,750.359 922.904,750.162 920.656 C 750.073 919.642,755.063 915.450,761.250 911.341 L 772.500 903.870 780.323 925.185 C 784.626 936.908,787.801 946.925,787.379 947.444 M982.887 956.113 C 982.433 956.567,977.575 957.835,972.090 958.932 C 962.714 960.807,962.220 960.495,963.843 953.713 C 964.793 949.746,966.529 939.855,967.703 931.734 L 969.836 916.969 976.774 936.129 C 980.589 946.667,983.340 955.660,982.887 956.113 M1131.260 939.029 C 1124.517 947.559,1119.000 955.768,1119.000 957.269 C 1119.000 958.771,1116.815 960.000,1114.144 960.000 C 1110.286 960.000,1110.998 957.688,1117.612 948.750 C 1128.797 933.634,1140.783 920.783,1142.291 922.291 C 1142.967 922.967,1138.003 930.499,1131.260 939.029 M1558.993 951.700 C 1559.970 957.861,1559.185 966.725,1557.249 971.399 C 1553.190 981.197,1557.561 997.313,1563.720 995.260 C 1568.254 993.749,1573.118 970.684,1570.751 961.919 C 1569.798 958.388,1566.363 952.125,1563.117 948.000 L 1557.216 940.500 1558.993 951.700 M1373.433 970.940 C 1376.075 975.876,1369.415 982.065,1319.731 1020.846 C 1269.424 1060.113,1262.085 1064.885,1254.808 1063.058 C 1246.844 1061.059,1246.984 1061.453,1259.581 1076.499 C 1272.649 1092.108,1282.592 1097.956,1274.146 1085.065 C 1269.689 1078.263,1270.268 1077.618,1304.444 1051.315 C 1323.607 1036.567,1348.985 1016.738,1360.840 1007.250 C 1383.112 989.426,1387.556 987.357,1389.839 993.750 C 1390.576 995.813,1392.273 996.478,1393.610 995.229 C 1396.331 992.688,1379.857 968.452,1374.104 966.535 C 1371.382 965.627,1371.206 966.780,1373.433 970.940 M826.098 998.021 C 834.569 1004.082,842.564 1009.938,843.863 1011.034 C 845.163 1012.130,840.751 1016.821,834.059 1021.459 C 827.367 1026.097,821.529 1029.353,821.086 1028.696 C 818.752 1025.233,807.780 987.000,809.120 987.000 C 809.987 987.000,817.627 991.959,826.098 998.021 M260.149 1040.188 C 218.503 1133.500,174.640 1286.635,160.237 1389.000 C 153.025 1440.254,152.995 1531.280,160.179 1563.979 C 166.188 1591.330,170.754 1602.582,175.239 1601.087 C 178.768 1599.911,233.040 1467.646,252.416 1413.000 C 259.144 1394.025,267.731 1371.075,271.499 1362.000 C 275.267 1352.925,280.048 1332.675,282.123 1317.000 C 285.989 1287.789,301.888 1237.836,316.488 1209.024 C 320.808 1200.499,323.857 1192.071,323.265 1190.294 C 322.672 1188.517,313.000 1205.836,301.770 1228.782 C 290.540 1251.727,276.599 1278.600,270.790 1288.500 C 264.981 1298.400,257.812 1313.479,254.859 1322.009 C 251.905 1330.539,243.979 1346.653,237.245 1357.819 C 230.510 1368.985,225.000 1379.378,225.000 1380.915 C 225.000 1382.451,221.045 1388.213,216.211 1393.719 C 211.376 1399.224,204.430 1411.932,200.775 1421.957 C 197.120 1431.982,192.975 1440.897,191.564 1441.769 C 180.625 1448.530,200.610 1261.213,217.519 1198.500 C 223.302 1177.050,232.628 1141.950,238.242 1120.500 C 243.856 1099.050,253.252 1068.742,259.123 1053.148 C 264.993 1037.555,269.364 1024.364,268.836 1023.836 C 268.308 1023.308,264.398 1030.666,260.149 1040.188 M1563.069 1027.417 C 1560.176 1030.903,1560.228 1035.054,1563.316 1047.103 C 1566.543 1059.693,1567.636 1061.273,1569.547 1056.109 C 1572.258 1048.781,1571.610 1023.000,1568.715 1023.000 C 1567.626 1023.000,1565.085 1024.988,1563.069 1027.417 M1071.884 1046.537 C 1083.096 1049.690,1092.862 1052.862,1093.586 1053.586 C 1094.311 1054.311,1080.323 1088.563,1062.504 1129.702 L 1030.104 1204.500 1013.700 1203.515 C 987.460 1201.939,968.597 1211.966,955.384 1234.514 C 952.533 1239.379,947.372 1237.718,894.634 1214.961 C 850.763 1196.030,837.000 1188.819,837.000 1184.764 C 837.000 1181.834,832.159 1175.446,826.242 1170.569 L 815.483 1161.701 820.679 1151.601 C 828.401 1136.587,849.351 1110.203,865.012 1095.768 C 897.952 1065.409,933.835 1048.919,987.000 1039.708 C 1002.526 1037.018,1052.260 1041.019,1071.884 1046.537 M1125.345 1069.710 C 1175.621 1100.251,1212.659 1151.644,1225.693 1208.951 C 1231.773 1235.681,1230.300 1290.804,1222.767 1318.500 C 1206.960 1376.609,1165.062 1426.086,1108.500 1453.437 C 1076.387 1468.966,1047.034 1476.000,1014.340 1476.000 C 990.641 1476.000,990.204 1475.860,976.364 1463.883 C 950.541 1441.533,908.130 1425.207,875.493 1425.052 C 865.400 1425.004,862.931 1423.071,845.734 1401.750 C 824.447 1375.359,806.433 1339.550,799.162 1309.177 C 793.863 1287.041,792.746 1233.492,797.197 1215.000 C 799.607 1204.988,800.486 1204.398,816.112 1202.296 C 825.126 1201.083,833.850 1199.883,835.500 1199.630 C 837.150 1199.376,860.100 1208.272,886.500 1219.400 C 912.900 1230.527,938.076 1241.084,942.446 1242.859 C 949.619 1245.772,950.411 1247.660,950.586 1262.260 C 950.794 1279.733,956.411 1291.624,971.040 1305.559 C 996.132 1329.462,1040.358 1323.412,1059.340 1293.480 C 1074.750 1269.182,1069.474 1235.871,1047.255 1217.175 L 1038.247 1209.596 1071.699 1134.298 C 1090.097 1092.884,1105.727 1059.000,1106.432 1059.000 C 1107.138 1059.000,1115.649 1063.819,1125.345 1069.710 M660.000 1108.786 C 660.000 1109.783,649.008 1108.308,633.912 1105.286 C 627.997 1104.102,627.642 1103.052,630.445 1095.014 L 633.565 1086.062 646.783 1096.892 C 654.052 1102.849,660.000 1108.201,660.000 1108.786 M667.062 1126.441 C 683.423 1128.115,689.380 1130.174,696.219 1136.522 C 700.946 1140.910,710.255 1148.300,716.907 1152.945 C 723.558 1157.589,729.000 1162.694,729.000 1164.289 C 729.000 1169.809,720.501 1170.413,711.115 1165.560 C 705.931 1162.879,683.196 1153.215,660.595 1144.085 C 637.993 1134.954,619.027 1127.015,618.450 1126.442 C 617.872 1125.868,618.184 1124.129,619.144 1122.576 C 620.159 1120.934,626.241 1120.712,633.694 1122.045 C 640.737 1123.306,655.753 1125.284,667.062 1126.441 M740.493 1135.539 C 741.039 1136.060,740.053 1139.165,738.300 1142.439 C 735.517 1147.639,733.686 1148.028,723.801 1145.519 C 717.578 1143.940,709.115 1139.940,704.994 1136.630 L 697.500 1130.612 718.500 1132.602 C 730.050 1133.696,739.947 1135.018,740.493 1135.539 M1452.000 1171.853 C 1452.000 1177.326,1448.913 1178.247,1419.750 1181.478 C 1342.647 1190.019,1310.330 1191.765,1307.649 1187.534 C 1304.244 1182.162,1304.281 1185.846,1307.952 1217.779 C 1310.777 1242.356,1317.000 1258.395,1317.000 1241.100 C 1317.000 1234.704,1318.420 1232.997,1323.750 1232.988 C 1327.463 1232.981,1352.100 1230.972,1378.500 1228.523 C 1442.586 1222.579,1453.866 1222.682,1458.030 1229.250 C 1460.545 1233.216,1461.013 1226.898,1459.944 1203.415 C 1459.166 1186.318,1457.060 1170.860,1455.265 1169.065 C 1452.912 1166.712,1452.000 1167.490,1452.000 1171.853 M1455.000 1198.298 C 1455.000 1203.756,1450.065 1205.070,1420.500 1207.483 C 1407.300 1208.561,1379.633 1211.368,1359.018 1213.721 C 1313.205 1218.951,1314.000 1218.949,1314.000 1213.859 C 1314.000 1210.785,1323.093 1208.745,1349.250 1205.948 C 1368.638 1203.876,1398.000 1200.512,1414.500 1198.474 C 1455.299 1193.434,1455.000 1193.436,1455.000 1198.298 M452.282 1266.879 C 424.913 1321.226,396.047 1384.887,347.310 1498.384 C 297.703 1613.911,284.130 1642.105,272.214 1654.374 L 261.941 1664.951 258.356 1657.084 C 255.070 1649.872,253.685 1649.365,241.739 1651.002 C 229.112 1652.733,228.651 1652.506,226.893 1643.715 C 225.827 1638.385,227.538 1625.766,231.039 1613.131 C 234.717 1599.861,237.000 1582.350,237.000 1567.421 C 237.000 1546.953,238.513 1539.541,246.809 1519.360 C 252.204 1506.237,257.921 1493.475,259.513 1491.000 C 267.495 1478.592,276.089 1456.051,279.038 1439.790 C 282.118 1422.807,295.134 1386.409,305.079 1366.971 C 307.479 1362.280,308.753 1357.753,307.910 1356.910 C 305.640 1354.640,278.230 1413.104,253.076 1473.866 C 240.926 1503.217,219.234 1552.360,204.872 1583.073 L 178.759 1638.914 186.262 1652.353 C 200.724 1678.257,230.515 1691.576,255.530 1683.320 C 271.771 1677.960,304.372 1643.113,314.656 1620.121 C 337.032 1570.090,353.957 1529.540,355.550 1522.143 C 357.451 1513.322,365.160 1494.375,393.858 1428.000 C 402.775 1407.375,411.824 1383.750,413.966 1375.500 C 418.059 1359.730,447.815 1286.850,454.425 1276.403 C 460.084 1267.459,477.895 1223.895,476.473 1222.473 C 475.805 1221.805,464.919 1241.787,452.282 1266.879 M705.000 1246.500 C 705.000 1249.858,701.442 1251.000,690.981 1251.000 C 683.270 1251.000,653.416 1253.194,624.639 1255.875 C 580.351 1260.001,571.875 1260.116,569.441 1256.625 C 567.586 1253.965,567.229 1269.012,568.434 1299.000 C 570.425 1348.500,574.891 1383.000,579.308 1383.000 C 580.789 1383.000,582.000 1381.013,582.000 1378.584 C 582.000 1375.774,588.276 1372.389,599.250 1369.279 C 665.962 1350.372,712.415 1335.256,713.462 1332.113 C 714.427 1329.219,699.700 1328.895,645.347 1330.618 C 596.959 1332.151,576.000 1331.851,576.000 1329.624 C 576.000 1327.868,583.763 1325.558,593.250 1324.491 C 602.738 1323.424,631.787 1319.951,657.803 1316.775 C 714.460 1309.858,711.000 1309.941,711.000 1315.500 C 711.000 1317.975,712.496 1320.000,714.325 1320.000 C 716.257 1320.000,716.966 1317.172,716.018 1313.250 C 715.120 1309.538,713.439 1291.988,712.283 1274.250 C 711.127 1256.513,709.015 1242.000,707.591 1242.000 C 706.166 1242.000,705.000 1244.025,705.000 1246.500 M705.000 1269.000 C 705.000 1270.650,704.663 1272.031,704.250 1272.068 C 703.838 1272.105,675.825 1274.791,642.000 1278.036 C 568.590 1285.080,573.000 1284.951,573.000 1280.045 C 573.000 1277.123,585.722 1274.895,621.750 1271.508 C 682.494 1265.797,705.000 1265.119,705.000 1269.000 M708.000 1289.864 C 708.000 1293.335,703.550 1294.073,632.252 1302.419 C 582.217 1308.277,568.472 1308.528,573.507 1303.493 C 574.692 1302.308,679.262 1289.304,702.750 1287.421 C 705.638 1287.189,708.000 1288.289,708.000 1289.864 M232.777 1310.600 C 228.356 1316.980,221.422 1325.315,217.369 1329.123 C 209.009 1336.977,208.250 1342.935,214.548 1351.258 C 218.769 1356.837,219.092 1356.846,224.952 1351.543 C 228.279 1348.533,231.000 1344.444,231.000 1342.457 C 231.000 1340.470,235.050 1331.255,240.000 1321.979 C 244.950 1312.703,249.000 1303.738,249.000 1302.057 C 249.000 1295.160,240.303 1299.740,232.777 1310.600 M212.977 1306.527 C 210.145 1309.940,209.964 1312.164,212.325 1314.525 C 216.877 1319.077,225.651 1315.090,224.472 1309.008 C 223.125 1302.061,217.662 1300.882,212.977 1306.527 M1595.400 1317.600 C 1603.372 1325.572,1595.720 1359.957,1580.441 1384.818 C 1576.492 1391.243,1570.936 1404.099,1568.092 1413.386 C 1565.249 1422.673,1558.890 1435.346,1553.961 1441.549 C 1543.137 1455.169,1541.865 1448.415,1552.532 1433.957 C 1563.007 1419.759,1565.964 1406.827,1565.983 1375.127 C 1565.999 1348.757,1570.656 1327.349,1578.407 1318.009 C 1582.541 1313.028,1590.633 1312.833,1595.400 1317.600 M657.000 1337.173 C 652.875 1337.919,634.116 1342.558,615.313 1347.484 C 579.606 1356.836,576.163 1356.476,576.046 1343.371 C 576.007 1339.025,579.773 1338.089,600.750 1337.232 C 638.515 1335.690,665.360 1335.662,657.000 1337.173 M1288.747 1354.504 C 1283.933 1366.052,1275.409 1384.751,1269.805 1396.057 C 1259.763 1416.317,1258.830 1423.196,1267.049 1416.375 C 1270.348 1413.637,1283.845 1418.134,1330.319 1437.456 C 1386.066 1460.633,1389.296 1462.411,1387.640 1469.008 C 1386.675 1472.854,1387.107 1476.000,1388.599 1476.000 C 1392.457 1476.000,1425.032 1402.624,1424.843 1394.360 L 1424.685 1387.500 1420.309 1393.750 C 1415.953 1399.971,1415.739 1399.924,1374.716 1383.880 C 1298.872 1354.217,1300.690 1355.181,1299.000 1343.699 C 1297.523 1333.666,1297.364 1333.834,1288.747 1354.504 M1350.358 1392.072 C 1382.140 1405.311,1408.786 1416.786,1409.572 1417.572 C 1410.357 1418.357,1410.166 1419.834,1409.146 1420.854 C 1406.201 1423.799,1290.027 1375.914,1290.013 1371.750 C 1290.006 1369.688,1290.579 1368.000,1291.286 1368.000 C 1291.993 1368.000,1318.576 1378.832,1350.358 1392.072 M1341.247 1416.547 C 1374.170 1430.047,1400.047 1442.153,1398.752 1443.448 C 1396.096 1446.104,1278.000 1398.138,1278.000 1394.403 C 1278.000 1393.081,1278.762 1392.000,1279.694 1392.000 C 1280.625 1392.000,1308.324 1403.046,1341.247 1416.547 M508.756 1459.102 C 519.555 1492.323,541.044 1544.556,552.388 1565.153 C 580.298 1615.830,626.973 1669.634,676.500 1708.221 C 715.746 1738.798,761.620 1766.646,792.000 1778.337 C 804.375 1783.099,828.000 1792.243,844.500 1798.657 C 867.703 1807.676,879.258 1810.461,895.500 1810.946 C 907.050 1811.291,951.401 1812.464,994.058 1813.553 L 1071.615 1815.533 1079.558 1808.077 C 1089.337 1798.896,1126.668 1780.078,1162.722 1766.154 C 1237.955 1737.098,1296.768 1697.830,1359.000 1635.103 C 1379.625 1614.314,1404.965 1585.874,1415.311 1571.902 C 1453.597 1520.201,1471.597 1497.343,1475.250 1495.787 C 1481.721 1493.028,1479.431 1504.178,1469.406 1524.241 C 1451.614 1559.846,1361.773 1673.195,1331.489 1698.245 C 1281.687 1739.440,1197.243 1785.158,1143.000 1800.294 C 1132.275 1803.286,1112.025 1809.234,1098.000 1813.510 C 971.863 1851.970,843.921 1832.554,711.988 1754.928 C 671.941 1731.366,644.625 1709.182,606.797 1669.500 C 545.566 1605.268,513.532 1546.336,490.706 1455.932 L 482.988 1425.364 489.607 1414.146 L 496.226 1402.927 499.988 1423.315 C 502.058 1434.529,506.004 1450.632,508.756 1459.102 M753.000 1439.920 C 753.000 1441.526,733.763 1457.278,710.250 1474.923 C 686.738 1492.569,661.033 1512.350,653.130 1518.883 C 645.226 1525.415,637.801 1529.757,636.630 1528.531 C 635.458 1527.305,638.319 1523.421,642.986 1519.901 C 647.653 1516.380,672.628 1496.422,698.486 1475.549 C 742.941 1439.664,753.000 1433.090,753.000 1439.920 M909.000 1444.890 C 928.757 1450.449,954.568 1463.877,969.000 1476.104 L 979.500 1485.000 969.019 1493.769 C 955.861 1504.778,959.010 1508.955,973.647 1499.909 C 985.768 1492.418,984.309 1491.581,997.348 1513.500 C 1012.708 1539.318,1018.159 1579.373,1010.903 1613.102 C 1006.241 1634.774,1004.415 1636.728,993.181 1632.075 C 988.026 1629.940,982.841 1629.159,981.659 1630.341 C 979.609 1632.391,983.035 1635.614,994.821 1642.721 C 999.849 1645.752,999.749 1646.544,993.111 1656.221 C 969.398 1690.786,938.037 1711.898,897.750 1720.415 C 888.567 1722.357,887.998 1721.983,887.959 1713.988 C 887.937 1709.320,887.074 1702.348,886.043 1698.496 C 883.059 1687.352,878.870 1697.487,880.979 1710.750 L 882.767 1722.000 869.514 1722.000 C 837.544 1722.000,801.775 1706.839,775.042 1681.955 L 757.709 1665.822 766.823 1661.109 C 775.673 1656.532,785.756 1647.000,781.748 1647.000 C 780.655 1647.000,774.190 1649.842,767.381 1653.316 L 755.002 1659.631 749.488 1652.566 C 734.077 1632.818,726.503 1578.010,734.691 1545.494 C 738.084 1532.020,739.613 1529.766,744.361 1531.244 C 747.462 1532.210,752.700 1533.832,756.000 1534.850 C 765.508 1537.781,762.966 1531.128,753.000 1527.000 C 748.050 1524.950,744.000 1521.867,744.000 1520.149 C 744.000 1513.524,763.335 1487.352,778.068 1474.035 C 793.916 1459.708,821.981 1444.645,839.250 1441.197 C 847.704 1439.509,849.000 1440.065,849.000 1445.380 C 849.000 1453.783,852.042 1461.000,855.585 1461.000 C 857.373 1461.000,857.704 1456.124,856.428 1448.575 L 854.329 1436.149 873.414 1438.198 C 883.911 1439.325,899.925 1442.336,909.000 1444.890 M769.048 1459.404 C 769.977 1461.826,769.385 1464.644,767.732 1465.666 C 766.078 1466.688,759.326 1474.355,752.727 1482.704 C 743.440 1494.451,731.178 1503.589,698.488 1523.118 C 648.092 1553.226,634.283 1554.685,672.364 1525.877 C 686.189 1515.419,711.675 1495.227,729.000 1481.006 C 746.325 1466.786,762.043 1455.117,763.929 1455.075 C 765.815 1455.034,768.119 1456.982,769.048 1459.404 M901.406 1462.500 C 900.633 1464.975,899.367 1469.025,898.594 1471.500 C 896.709 1477.534,904.859 1477.301,907.179 1471.255 C 909.943 1464.052,909.362 1458.000,905.906 1458.000 C 904.204 1458.000,902.179 1460.025,901.406 1462.500 M917.000 1466.000 C 913.911 1469.089,914.635 1478.421,918.131 1480.581 C 923.798 1484.083,930.227 1476.030,926.831 1469.685 C 923.673 1463.783,920.432 1462.568,917.000 1466.000 M804.000 1478.332 C 804.000 1483.117,813.495 1494.000,817.670 1494.000 C 823.706 1494.000,823.076 1486.904,816.514 1480.965 C 810.770 1475.767,804.000 1474.343,804.000 1478.332 M1192.290 1488.916 C 1185.805 1494.370,1169.363 1506.613,1155.750 1516.123 C 1132.542 1532.336,1124.235 1541.551,1136.273 1537.731 C 1142.179 1535.856,1141.299 1534.861,1189.031 1597.379 C 1211.273 1626.512,1220.486 1640.893,1219.300 1644.629 C 1216.354 1653.912,1222.680 1650.676,1254.246 1626.750 C 1271.117 1613.963,1287.414 1601.648,1290.460 1599.384 C 1293.507 1597.120,1296.000 1593.243,1296.000 1590.767 C 1296.000 1587.432,1294.997 1587.098,1292.131 1589.476 C 1289.151 1591.950,1278.993 1580.936,1247.881 1541.499 C 1223.458 1510.540,1207.782 1488.076,1208.215 1484.655 C 1209.226 1476.652,1205.773 1477.576,1192.290 1488.916 M786.750 1489.987 C 780.437 1492.534,782.553 1499.273,791.713 1505.796 C 802.066 1513.168,802.866 1513.282,805.011 1507.691 C 805.921 1505.322,803.942 1499.922,800.615 1495.691 C 794.429 1487.828,793.276 1487.353,786.750 1489.987 M1235.209 1551.865 C 1265.946 1591.466,1281.250 1614.694,1268.240 1602.000 C 1254.442 1588.537,1188.393 1501.790,1189.983 1499.219 C 1191.078 1497.447,1193.864 1498.732,1196.679 1502.310 C 1199.331 1505.679,1216.669 1527.979,1235.209 1551.865 M891.880 1512.650 C 890.219 1514.768,885.136 1526.625,880.583 1539.000 C 875.254 1553.487,869.135 1564.217,863.401 1569.129 C 855.683 1575.740,854.752 1578.141,856.419 1587.129 C 858.324 1597.395,856.472 1603.696,837.066 1653.000 C 826.392 1680.116,835.212 1665.912,850.813 1630.860 C 862.809 1603.909,866.796 1597.713,873.688 1595.310 C 882.933 1592.088,887.691 1580.357,882.359 1573.933 C 879.867 1570.929,881.574 1564.084,889.271 1546.222 C 894.894 1533.175,899.945 1519.940,900.497 1516.811 C 901.703 1509.970,896.104 1507.266,891.880 1512.650 M1217.179 1563.588 C 1239.002 1591.757,1256.138 1615.968,1255.258 1617.391 C 1253.500 1620.237,1173.000 1520.157,1173.000 1515.124 C 1173.000 1507.833,1179.548 1515.017,1217.179 1563.588 M710.168 1526.957 C 707.873 1530.233,698.148 1541.142,688.556 1551.197 L 671.117 1569.480 663.308 1561.394 C 659.014 1556.947,656.850 1552.748,658.500 1552.063 C 660.150 1551.378,672.975 1544.181,687.000 1536.070 C 701.025 1527.959,712.914 1521.250,713.420 1521.161 C 713.926 1521.073,712.463 1523.681,710.168 1526.957 M1510.921 1533.750 C 1506.888 1540.763,1502.730 1550.550,1501.681 1555.500 C 1500.633 1560.450,1497.155 1567.875,1493.954 1572.000 L 1488.133 1579.500 1488.067 1569.709 C 1488.022 1563.180,1492.233 1553.433,1500.703 1540.459 C 1514.852 1518.786,1522.362 1513.855,1510.921 1533.750 M1198.538 1576.712 C 1221.109 1605.704,1238.661 1630.339,1237.543 1631.457 C 1236.425 1632.575,1232.584 1629.444,1229.005 1624.500 C 1225.427 1619.555,1207.849 1596.694,1189.941 1573.696 C 1159.267 1534.302,1152.216 1524.000,1155.930 1524.000 C 1156.794 1524.000,1175.968 1547.721,1198.538 1576.712 M970.377 1551.200 C 969.289 1552.959,969.146 1555.146,970.060 1556.060 C 972.666 1558.666,993.000 1554.061,993.000 1550.864 C 993.000 1546.931,972.830 1547.230,970.377 1551.200 M969.814 1562.434 C 967.082 1564.169,967.659 1566.087,972.037 1569.836 C 976.865 1573.969,979.325 1574.268,985.473 1571.466 C 994.134 1567.520,995.028 1564.420,988.255 1561.821 C 981.822 1559.352,974.269 1559.603,969.814 1562.434 M745.293 1587.335 C 742.765 1591.425,750.005 1596.486,755.495 1594.468 C 757.693 1593.661,761.405 1593.000,763.745 1593.000 C 766.085 1593.000,768.000 1590.975,768.000 1588.500 C 768.000 1583.105,748.525 1582.106,745.293 1587.335 M1563.730 1593.750 C 1562.078 1595.813,1557.678 1603.575,1553.953 1611.000 C 1550.227 1618.425,1543.225 1630.575,1538.393 1638.000 L 1529.606 1651.500 1542.093 1638.000 C 1556.540 1622.382,1572.000 1599.591,1572.000 1593.913 C 1572.000 1588.951,1567.644 1588.865,1563.730 1593.750 M751.323 1606.443 C 746.276 1610.294,746.100 1611.296,750.000 1613.960 C 755.873 1617.972,766.713 1616.402,765.750 1611.679 C 765.338 1609.655,766.350 1608.000,768.000 1608.000 C 769.650 1608.000,771.000 1606.650,771.000 1605.000 C 771.000 1600.453,757.917 1601.412,751.323 1606.443 M241.676 1616.660 C 239.104 1621.633,237.000 1629.144,237.000 1633.351 C 237.000 1639.441,238.479 1641.000,244.255 1641.000 C 258.955 1641.000,260.338 1639.047,256.460 1623.772 C 252.143 1606.770,247.857 1604.708,241.676 1616.660 M1039.063 1713.742 C 1040.183 1718.024,1038.460 1719.000,1029.779 1719.000 L 1019.119 1719.000 1021.186 1683.750 C 1024.833 1621.549,1026.497 1618.996,1032.437 1666.492 C 1035.325 1689.588,1038.307 1710.851,1039.063 1713.742 M930.969 1657.803 C 929.955 1660.444,930.788 1663.633,932.819 1664.888 C 934.850 1666.144,936.355 1668.370,936.163 1669.835 C 935.971 1671.301,939.230 1672.927,943.407 1673.449 C 952.824 1674.627,952.857 1671.825,943.549 1661.250 C 935.140 1651.696,933.486 1651.243,930.969 1657.803 M1510.714 1669.714 C 1508.121 1672.307,1506.045 1676.695,1506.100 1679.464 C 1506.180 1683.514,1507.354 1683.114,1512.100 1677.418 C 1521.026 1666.703,1519.913 1660.516,1510.714 1669.714 M912.095 1671.750 C 912.268 1678.546,920.559 1686.811,925.356 1684.970 C 931.275 1682.699,931.252 1678.681,925.286 1672.714 C 919.642 1667.070,911.962 1666.509,912.095 1671.750 M802.723 1682.002 C 800.463 1687.890,805.054 1693.557,809.739 1690.662 C 814.467 1687.739,813.745 1677.000,808.821 1677.000 C 806.522 1677.000,803.778 1679.251,802.723 1682.002 M822.600 1683.600 C 818.402 1687.798,817.793 1699.900,821.660 1702.290 C 825.523 1704.677,829.833 1697.771,830.422 1688.250 C 830.971 1679.389,828.362 1677.838,822.600 1683.600 " stroke="none" fill="black" fill-rule="evenodd"/></svg>